<svg width="73" height="73" viewBox="0 0 73 73" fill="none" xmlns="http://www.w3.org/2000/svg">
<g clip-path="url(#clip0_135_179)">
<path d="M24.3291 32.0915C26.3135 32.0915 27.9222 30.4828 27.9222 28.4984C27.9222 26.514 26.3135 24.9053 24.3291 24.9053C22.3446 24.9053 20.736 26.514 20.736 28.4984C20.736 30.4828 22.3446 32.0915 24.3291 32.0915Z" fill="#808181"/>
<path d="M48.362 32.0914C50.3464 32.0914 51.9551 30.4827 51.9551 28.4983C51.9551 26.5138 50.3464 24.9052 48.362 24.9052C46.3776 24.9052 44.7689 26.5138 44.7689 28.4983C44.7689 30.4827 46.3776 32.0914 48.362 32.0914Z" fill="#808181"/>
<path d="M36.3455 72.836C16.3405 72.836 0.064209 56.5597 0.064209 36.5547C0.064209 16.5497 16.3405 0.273438 36.3455 0.273438C56.3505 0.273438 72.6268 16.5497 72.6268 36.5547C72.6268 56.5597 56.3505 72.836 36.3455 72.836ZM36.3455 3.28464C18.0015 3.28464 3.07541 18.2107 3.07541 36.5547C3.07541 54.8987 18.0015 69.8248 36.3455 69.8248C54.6895 69.8248 69.6156 54.8987 69.6156 36.5547C69.6156 18.2107 54.6895 3.28464 36.3455 3.28464Z" fill="#808181"/>
<path d="M36.3397 54.215C30.532 54.215 24.9672 51.7462 21.069 47.4356C20.5097 46.8198 20.5606 45.865 21.1764 45.3114C21.7922 44.752 22.7413 44.8029 23.3006 45.4187C26.6282 49.0965 31.3794 51.2095 36.3397 51.2095C41.3 51.2095 46.0456 49.1022 49.3732 45.4243C49.9325 44.8085 50.8816 44.7577 51.4974 45.317C52.1132 45.8763 52.1584 46.8254 51.6047 47.4412C47.7066 51.7462 42.1418 54.2207 36.3397 54.2207V54.215Z" fill="#808181"/>
</g>
<defs>
<clipPath id="clip0_135_179">
<rect width="72.5626" height="72.5626" fill="white" transform="translate(0.064209 0.273438)"/>
</clipPath>
</defs>
</svg>
