<?xml version="1.0" encoding="UTF-8"?>
<svg id="Capa_1" data-name="Capa 1" xmlns="http://www.w3.org/2000/svg" viewBox="0 0 16 16">
  <defs>
    <style>
      .cls-1 {
        fill: #fff;
      }

      .cls-2 {
        fill: #00a8e7;
      }
    </style>
  </defs>
  <rect class="cls-2" x="0" y="0" width="16" height="16"/>
  <g>
    <polygon class="cls-1" points="9.87 11.66 8 11.67 6.13 11.66 5.5 7.58 3.95 7.58 4.92 12.64 8 12.64 11.08 12.64 12.05 7.58 10.5 7.58 9.87 11.66"/>
    <polygon class="cls-1" points=".5 7.51 3.23 7.51 8 4.96 12.77 7.51 15.5 7.51 8 3.36 .5 7.51"/>
    <path class="cls-1" d="M8.35,9.75c-.09.06-.22.09-.39.09-.16,0-.31-.03-.46-.1-.15-.07-.29-.18-.4-.31l-.6.39c.15.16.34.29.57.4.23.11.46.18.68.19v.31s.57,0,.57,0v-.32c.4-.04.7-.14.9-.31.2-.16.3-.38.29-.66,0-.2-.08-.37-.22-.52-.14-.15-.41-.34-.8-.55-.17-.1-.3-.17-.39-.22-.1-.05-.15-.08-.16-.09-.13-.08-.23-.15-.28-.21-.05-.06-.08-.12-.08-.19,0-.11.04-.2.12-.26.09-.07.2-.09.34-.1.1,0,.18.02.26.03.07.03.13.06.19.12.04.04.08.09.11.15.03.05.05.12.07.19l.8-.17c-.05-.24-.19-.44-.4-.6-.21-.15-.49-.25-.82-.28v-.21s-.57,0-.57,0v.23c-.35.07-.62.18-.8.34-.18.16-.27.35-.27.58,0,.16.05.3.14.42.08.13.22.26.41.38.06.04.14.09.24.16.1.06.22.14.36.22.3.17.5.31.59.4.1.09.15.18.15.28,0,.09-.04.17-.14.22"/>
  </g>
</svg>