<svg width="271" height="233" viewBox="0 0 271 233" fill="none" xmlns="http://www.w3.org/2000/svg">
<g clip-path="url(#clip0_80_352)">
<path d="M231.152 23.9454H39.82C35.246 23.9454 31.5381 27.6533 31.5381 32.2273V102.915C31.5381 107.489 35.246 111.196 39.82 111.196H231.152C235.726 111.196 239.434 107.489 239.434 102.915V32.2273C239.434 27.6533 235.726 23.9454 231.152 23.9454Z" fill="#00ADEE"/>
<path d="M254.026 4.28668H16.475C9.98813 4.28668 4.72949 9.54532 4.72949 16.0322V158.564C4.72949 165.051 9.98813 170.31 16.475 170.31H254.026C260.513 170.31 265.771 165.051 265.771 158.564V16.0322C265.771 9.54532 260.513 4.28668 254.026 4.28668Z" stroke="#888888" stroke-width="8.57336" stroke-miterlimit="10"/>
<path d="M4.72949 131.121H265.771" stroke="#888888" stroke-width="8.57336" stroke-miterlimit="10"/>
<path d="M113.269 206.472H158.107C164.795 206.472 170.221 211.899 170.221 218.586V227.297C170.221 228.069 169.596 228.694 168.824 228.694H102.561C101.789 228.694 101.163 228.069 101.163 227.297V218.586C101.163 211.899 106.59 206.472 113.277 206.472H113.269Z" stroke="#888888" stroke-width="8.57336" stroke-miterlimit="10"/>
<path d="M122.973 170.31C122.973 170.31 124.173 189.06 113.268 206.481" stroke="#888888" stroke-width="8.57336" stroke-miterlimit="10"/>
<path d="M146.808 170.31C146.808 170.31 145.607 189.06 156.513 206.481" stroke="#888888" stroke-width="8.57336" stroke-miterlimit="10"/>
<path d="M141.69 143.115H129.284C125.633 143.115 122.674 146.073 122.674 149.721C122.674 153.369 125.633 156.327 129.284 156.327H141.69C145.34 156.327 148.3 153.369 148.3 149.721C148.3 146.073 145.34 143.115 141.69 143.115Z" fill="#888888"/>
<path d="M181.074 48.9625V41.3493C181.074 37.5085 177.962 34.3878 174.113 34.3878H94.1403C90.2994 34.3878 87.1787 37.4999 87.1787 41.3493V48.9625H181.074Z" fill="white"/>
<path d="M87.1787 55.624V93.2953C87.1787 97.1362 90.2908 100.257 94.1403 100.257H174.113C177.953 100.257 181.074 97.1447 181.074 93.2953L174.113 55.624H87.1787ZM96.4036 77.9404H111.664C113.19 77.9404 114.425 79.175 114.425 80.701C114.425 82.2271 113.19 83.4617 111.664 83.4617H96.4036C94.8776 83.4617 93.643 82.2271 93.643 80.701C93.643 79.175 94.8776 77.9404 96.4036 77.9404ZM123.118 90.6033C123.118 92.1293 121.884 93.3639 120.358 93.3639H96.4122C94.8862 93.3639 93.6516 92.1293 93.6516 90.6033C93.6516 89.0772 94.8862 87.8427 96.4122 87.8427H120.358C121.884 87.8427 123.118 89.0772 123.118 90.6033Z" fill="white"/>
<path d="M159.599 107.038C144.578 107.038 132.361 94.8214 132.361 79.8008C132.361 64.7803 144.578 52.5633 159.599 52.5633C174.619 52.5633 186.836 64.7803 186.836 79.8008C186.836 94.8214 174.619 107.038 159.599 107.038Z" fill="white"/>
<path d="M159.599 55.6154C172.965 55.6154 183.793 66.4521 183.793 79.8094C183.793 93.1667 172.956 104.003 159.599 104.003C146.241 104.003 135.405 93.1667 135.405 79.8094C135.405 66.4521 146.241 55.6154 159.599 55.6154ZM158.038 84.2847L149.971 76.4829L146.456 80.1266L158.124 91.4006L174.131 75.2484L170.538 71.6819L158.055 84.2761M159.599 49.5369C142.906 49.5369 129.326 63.1171 129.326 79.8094C129.326 96.5017 142.906 110.082 159.599 110.082C176.291 110.082 189.871 96.5017 189.871 79.8094C189.871 63.1171 176.291 49.5369 159.599 49.5369Z" fill="#00ADEE"/>
</g>
<defs>
<clipPath id="clip0_80_352">
<rect width="269.615" height="232.981" fill="white" transform="translate(0.442383)"/>
</clipPath>
</defs>
</svg>
