<svg width="68" height="76" viewBox="0 0 68 76" fill="none" xmlns="http://www.w3.org/2000/svg">
<g clip-path="url(#clip0_135_154)">
<path d="M33.9098 75.8351C33.1769 75.8351 32.4497 75.709 31.7515 75.4569C24.3936 72.7659 0.380859 62.188 0.380859 38.8508V19.5859C0.380859 14.5162 4.32815 10.2631 9.56813 9.69857C10.8204 9.56703 12.1881 9.49578 13.6482 9.49578C19.0439 9.49578 24.0127 6.11962 27.2328 3.28606C31.0416 -0.0681728 36.7894 -0.0681728 40.5925 3.28606C43.8126 6.11962 48.7814 9.49578 54.1772 9.49578C55.6083 9.49578 56.9472 9.56155 58.1648 9.68761C63.4568 10.2412 67.4445 14.4997 67.4445 19.5859V38.8508C67.4445 62.188 43.4317 72.7659 36.0739 75.4569C35.3756 75.709 34.6427 75.8351 33.9155 75.8351H33.9098ZM33.9098 3.69712C32.2708 3.69712 30.6261 4.2726 29.3161 5.42356C24.1223 9.99453 18.7035 12.4116 13.6424 12.4116C12.2978 12.4116 11.0455 12.4718 9.90861 12.5979C6.22678 12.998 3.45098 16.0015 3.45098 19.5859V38.8508C3.45098 60.3245 25.9517 70.2118 32.8479 72.7275C33.5404 72.9796 34.2733 72.9796 34.9601 72.7275C41.8563 70.2063 64.357 60.3245 64.357 38.8508V19.5859C64.357 15.9905 61.5466 12.9816 57.8128 12.5924C56.7106 12.4773 55.4814 12.417 54.1656 12.417C49.1045 12.417 43.6857 10 38.4919 5.42905C37.1819 4.27808 35.5429 3.7026 33.8982 3.7026L33.9098 3.69712Z" fill="#808181"/>
<path d="M33.9097 58.5872C22.137 58.5872 12.5631 49.4946 12.5631 38.3138C12.5631 27.133 22.1428 18.0404 33.9097 18.0404C45.6765 18.0404 55.2562 27.133 55.2562 38.3138C55.2562 49.4946 45.6823 58.5872 33.9097 58.5872ZM33.9097 20.9562C23.8337 20.9562 15.639 28.7444 15.639 38.3138C15.639 47.8832 23.8337 55.6659 33.9097 55.6659C43.9856 55.6659 52.1861 47.8832 52.1861 38.3138C52.1861 28.7444 43.9856 20.9562 33.9097 20.9562Z" fill="#808181"/>
<path d="M30.724 44.9617C30.3374 44.9617 29.9507 44.8247 29.6506 44.5452L25.0974 40.325C24.4915 39.7604 24.4799 38.8397 25.0686 38.2587C25.663 37.6832 26.6325 37.6723 27.2442 38.2313L30.7413 41.4704L41.3944 31.9394C42.0119 31.3858 42.9814 31.4132 43.5643 31.9997C44.1471 32.5861 44.1183 33.5124 43.5008 34.0604L31.7743 44.5506C31.48 44.8137 31.0991 44.9507 30.7183 44.9507L30.724 44.9617Z" fill="#808181"/>
</g>
<defs>
<clipPath id="clip0_135_154">
<rect width="67.0578" height="75.0647" fill="white" transform="translate(0.380859 0.770386)"/>
</clipPath>
</defs>
</svg>
